# xmcd
#
# Track frame offsets: 
#        150
#        18590
#        33665
#        49507
#        67060
#        81900
#        101915
#        122517
#        139550
#        153952
#        173165
#        190292
#
# Disc length: 2735 seconds
#
# Revision: 2
# Processed by: cddbd v1.5.2PL0 Copyright (c) Steve Scherf et al.
# Submitted via: ExactAudioCopy v0.95b4
#
DISCID=a00aad0c
DTITLE=Heather Headley - In My Mind
DYEAR=2006
DGENRE=R&B
TTITLE0=In My Mind
TTITLE1=Am I Worth It
TTITLE2=Wait A Minute
TTITLE3=I Didn't Mean To
TTITLE4=How Many Ways (Feat. Vybz Kartel)
TTITLE5=Back When It Was
TTITLE6=What's Not Being Said
TTITLE7=Losing You
TTITLE8=Rain - Feat. Shaggy
TTITLE9=Letter, The
TTITLE10=Me Time
TTITLE11=Change
EXTD=YEAR: 2006
EXTT0=
EXTT1=
EXTT2=
EXTT3=
EXTT4=
EXTT5=
EXTT6=
EXTT7=
EXTT8=
EXTT9=
EXTT10=
EXTT11=
PLAYORDER=
